<svg xmlns="http://www.w3.org/2000/svg" width="254.867" height="458" viewBox="0 0 254.867 458"><defs><style>.a{fill:#b6b6b6;}.b{fill:rgba(3,206,164,0.44);}.c{fill:#fff;}.d{fill:#03cea4;}.e{fill:#dbdbdb;}.f{fill:#dbb8b8;}</style></defs><g transform="translate(-632 -5689)"><rect class="a" width="10" height="74" transform="translate(749 5708)"/><g transform="translate(0 50)"><path class="b" d="M8,0H155.867a48,48,0,0,1,48,48v67.6a0,0,0,0,1,0,0H0a0,0,0,0,1,0,0V8A8,8,0,0,1,8,0Z" transform="translate(683 5673)"/><path class="c" d="M48,0h4a48,48,0,0,1,48,48v67.6a0,0,0,0,1,0,0H0a0,0,0,0,1,0,0V48A48,48,0,0,1,48,0Z" transform="translate(632 5673)"/><rect class="d" width="61" height="11" rx="5.5" transform="translate(649 5712)"/><rect class="e" width="100" height="10" transform="translate(632 5789)"/><rect class="a" width="155" height="10" transform="translate(731.867 5789)"/><circle class="f" cx="7" cy="7" r="7" transform="translate(669 5751)"/><rect class="a" width="11" height="298" transform="translate(742 5799)"/><rect class="e" width="11" height="298" transform="translate(732 5799)"/></g><rect class="a" width="46" height="27" transform="translate(749 5689)"/></g></svg>